G04 EAGLE Gerber X2 export*
%TF.Part,Single*%
%TF.FileFunction,Copper,L2,Bot,Mixed*%
%TF.FilePolarity,Positive*%
%TF.GenerationSoftware,Autodesk,EAGLE,9.2.2*%
%TF.CreationDate,2018-12-07T06:18:27Z*%
G75*
%MOMM*%
%FSLAX34Y34*%
%LPD*%
%INBottom Copper*%
%AMOC8*
5,1,8,0,0,1.08239X$1,22.5*%
G01*
%ADD10C,1.524000*%
%ADD11C,1.574800*%
%ADD12P,1.429621X8X22.500000*%
%ADD13P,1.429621X8X292.500000*%
%ADD14P,1.429621X8X112.500000*%
%ADD15P,1.429621X8X202.500000*%
%ADD16C,0.600000*%
%ADD17C,0.400000*%


D10*
X279400Y769620D02*
X279400Y754380D01*
X254000Y754380D02*
X254000Y769620D01*
X228600Y769620D02*
X228600Y754380D01*
X203200Y754380D02*
X203200Y769620D01*
X177800Y769620D02*
X177800Y754380D01*
X152400Y754380D02*
X152400Y769620D01*
X127000Y769620D02*
X127000Y754380D01*
X101600Y754380D02*
X101600Y769620D01*
X101600Y541020D02*
X101600Y525780D01*
X127000Y525780D02*
X127000Y541020D01*
X152400Y541020D02*
X152400Y525780D01*
X177800Y525780D02*
X177800Y541020D01*
X203200Y541020D02*
X203200Y525780D01*
X228600Y525780D02*
X228600Y541020D01*
X254000Y541020D02*
X254000Y525780D01*
X279400Y525780D02*
X279400Y541020D01*
D11*
X58674Y431800D02*
X42926Y431800D01*
X42926Y406400D02*
X58674Y406400D01*
X58674Y381000D02*
X42926Y381000D01*
X42926Y355600D02*
X58674Y355600D01*
X58674Y330200D02*
X42926Y330200D01*
X42926Y304800D02*
X58674Y304800D01*
X58674Y279400D02*
X42926Y279400D01*
X42926Y254000D02*
X58674Y254000D01*
X58674Y228600D02*
X42926Y228600D01*
X42926Y203200D02*
X58674Y203200D01*
X58674Y177800D02*
X42926Y177800D01*
X42926Y152400D02*
X58674Y152400D01*
X58674Y127000D02*
X42926Y127000D01*
X42926Y101600D02*
X58674Y101600D01*
X58674Y76200D02*
X42926Y76200D01*
X195326Y76200D02*
X211074Y76200D01*
X211074Y101600D02*
X195326Y101600D01*
X195326Y127000D02*
X211074Y127000D01*
X211074Y152400D02*
X195326Y152400D01*
X195326Y177800D02*
X211074Y177800D01*
X211074Y203200D02*
X195326Y203200D01*
X195326Y228600D02*
X211074Y228600D01*
X211074Y254000D02*
X195326Y254000D01*
X195326Y279400D02*
X211074Y279400D01*
X211074Y304800D02*
X195326Y304800D01*
X195326Y330200D02*
X211074Y330200D01*
X211074Y355600D02*
X195326Y355600D01*
X195326Y381000D02*
X211074Y381000D01*
X211074Y406400D02*
X195326Y406400D01*
X195326Y431800D02*
X211074Y431800D01*
D12*
X352900Y392900D03*
X340200Y411950D03*
X327500Y392900D03*
X352900Y453700D03*
X340200Y472750D03*
X327500Y453700D03*
X352900Y332100D03*
X340200Y351150D03*
X327500Y332100D03*
X251300Y466400D03*
X302100Y466400D03*
X515300Y342900D03*
X540700Y342900D03*
D13*
X566100Y368300D03*
X566100Y342900D03*
X469900Y625000D03*
X469900Y574200D03*
D14*
X431800Y574200D03*
X431800Y625000D03*
D10*
X413700Y350520D02*
X413700Y335280D01*
X439100Y335280D02*
X439100Y350520D01*
X464500Y350520D02*
X464500Y335280D01*
X489900Y335280D02*
X489900Y350520D01*
X413700Y299720D02*
X413700Y284480D01*
X439100Y284480D02*
X439100Y299720D01*
X464500Y299720D02*
X464500Y284480D01*
X489900Y284480D02*
X489900Y299720D01*
D15*
X302100Y344800D03*
X251300Y344800D03*
X302100Y405600D03*
X251300Y405600D03*
D12*
X381000Y675800D03*
X406400Y675800D03*
X515300Y292100D03*
X540700Y292100D03*
D13*
X566100Y419100D03*
X566100Y393700D03*
X566100Y317500D03*
X566100Y292100D03*
X469900Y675800D03*
X469900Y650400D03*
X431800Y675800D03*
X431800Y650400D03*
X431800Y762000D03*
X431800Y736600D03*
D10*
X436880Y533400D02*
X452120Y533400D01*
X452120Y508000D02*
X436880Y508000D01*
X436880Y482600D02*
X452120Y482600D01*
X452120Y457200D02*
X436880Y457200D01*
D12*
X352900Y28100D03*
X340200Y47150D03*
X327500Y28100D03*
D10*
X413700Y30480D02*
X413700Y45720D01*
X439100Y45720D02*
X439100Y30480D01*
X464500Y30480D02*
X464500Y45720D01*
X489900Y45720D02*
X489900Y30480D01*
D12*
X515300Y38100D03*
X540700Y38100D03*
D13*
X566100Y63500D03*
X566100Y38100D03*
D12*
X352900Y88900D03*
X340200Y107950D03*
X327500Y88900D03*
D10*
X413700Y81280D02*
X413700Y96520D01*
X439100Y96520D02*
X439100Y81280D01*
X464500Y81280D02*
X464500Y96520D01*
X489900Y96520D02*
X489900Y81280D01*
D12*
X515300Y88900D03*
X540700Y88900D03*
D13*
X566100Y114300D03*
X566100Y88900D03*
D12*
X352900Y149700D03*
X340200Y168750D03*
X327500Y149700D03*
D10*
X413700Y147320D02*
X413700Y132080D01*
X439100Y132080D02*
X439100Y147320D01*
X464500Y147320D02*
X464500Y132080D01*
X489900Y132080D02*
X489900Y147320D01*
D12*
X515300Y139700D03*
X540700Y139700D03*
D13*
X566100Y165100D03*
X566100Y139700D03*
D12*
X352900Y210500D03*
X340200Y229550D03*
X327500Y210500D03*
D10*
X413700Y198120D02*
X413700Y182880D01*
X439100Y182880D02*
X439100Y198120D01*
X464500Y198120D02*
X464500Y182880D01*
X489900Y182880D02*
X489900Y198120D01*
D12*
X515300Y190500D03*
X540700Y190500D03*
D13*
X566100Y215900D03*
X566100Y190500D03*
D12*
X352900Y271300D03*
X340200Y290350D03*
X327500Y271300D03*
D10*
X413700Y248920D02*
X413700Y233680D01*
X439100Y233680D02*
X439100Y248920D01*
X464500Y248920D02*
X464500Y233680D01*
X489900Y233680D02*
X489900Y248920D01*
D12*
X515300Y241300D03*
X540700Y241300D03*
D13*
X566100Y266700D03*
X566100Y241300D03*
D15*
X302100Y284000D03*
X251300Y284000D03*
X302100Y223200D03*
X251300Y223200D03*
X302100Y162400D03*
X251300Y162400D03*
X302100Y101600D03*
X251300Y101600D03*
X302100Y40800D03*
X251300Y40800D03*
D10*
X411900Y382380D02*
X411900Y397620D01*
X437300Y397620D02*
X437300Y382380D01*
X462700Y382380D02*
X462700Y397620D01*
X488100Y397620D02*
X488100Y382380D01*
D12*
X517300Y390000D03*
X542700Y390000D03*
X377300Y760000D03*
X402700Y760000D03*
D16*
X127052Y533066D02*
X127052Y481969D01*
X153982Y455040D02*
X203007Y406014D01*
X153982Y455040D02*
X127052Y481969D01*
X127052Y533066D02*
X127000Y533400D01*
X203200Y406400D02*
X203007Y406014D01*
X55240Y356298D02*
X51097Y356298D01*
X55240Y356298D02*
X153982Y455040D01*
X51097Y356298D02*
X50800Y355600D01*
X203007Y381156D02*
X203007Y403252D01*
X203007Y381156D02*
X203200Y381000D01*
X203007Y403252D02*
X203200Y406400D01*
X439158Y189197D02*
X439158Y140862D01*
X439100Y139700D01*
X439158Y189197D02*
X439100Y190500D01*
X439158Y193340D02*
X439158Y240294D01*
X439100Y241300D01*
X439158Y193340D02*
X439100Y190500D01*
X396347Y379775D02*
X205769Y379775D01*
X396347Y379775D02*
X406014Y370108D01*
X417062Y370108D01*
X436396Y389442D01*
X205769Y379775D02*
X203200Y381000D01*
X436396Y389442D02*
X437300Y390000D01*
D17*
X459873Y361822D02*
X487493Y389442D01*
X459873Y361822D02*
X234770Y361822D01*
X204388Y331440D01*
X487493Y389442D02*
X488100Y390000D01*
X204388Y331440D02*
X203200Y330200D01*
X379775Y527542D02*
X379775Y675309D01*
X379775Y527542D02*
X328678Y476445D01*
X328678Y454349D01*
X379775Y675309D02*
X381000Y675800D01*
X328678Y454349D02*
X327500Y453700D01*
X327297Y88384D02*
X327297Y29001D01*
X327500Y28100D01*
X327297Y88384D02*
X327500Y88900D01*
X327297Y150529D02*
X327297Y209912D01*
X327297Y150529D02*
X327500Y149700D01*
X327297Y209912D02*
X327500Y210500D01*
X327297Y272057D02*
X327297Y331440D01*
X327297Y272057D02*
X327500Y271300D01*
X327297Y331440D02*
X327500Y332100D01*
X327297Y269295D02*
X327297Y211293D01*
X327500Y210500D01*
X327297Y269295D02*
X327500Y271300D01*
X430872Y737454D02*
X150529Y737454D01*
X127052Y760931D01*
X430872Y737454D02*
X431800Y736600D01*
X127052Y760931D02*
X127000Y762000D01*
X24858Y102194D02*
X49716Y77336D01*
X24858Y102194D02*
X24858Y611783D01*
X150529Y737454D01*
X49716Y77336D02*
X50800Y76200D01*
X430872Y574496D02*
X430872Y610402D01*
X421205Y620069D01*
X421205Y639403D01*
X430872Y649070D01*
X430872Y574496D02*
X431800Y574200D01*
X430872Y649070D02*
X431800Y650400D01*
X433634Y650451D02*
X469540Y650451D01*
X469900Y650400D01*
X433634Y650451D02*
X431800Y650400D01*
D16*
X443301Y457111D02*
X372870Y457111D01*
X348012Y432253D01*
X204388Y432253D01*
X443301Y457111D02*
X444500Y457200D01*
X204388Y432253D02*
X203200Y431800D01*
D17*
X458492Y69050D02*
X488874Y38668D01*
X458492Y69050D02*
X357679Y69050D01*
X338345Y88384D01*
X338345Y92527D01*
X302439Y128433D01*
X227865Y128433D01*
X204388Y151910D01*
X488874Y38668D02*
X489900Y38100D01*
X204388Y151910D02*
X203200Y152400D01*
X464016Y114623D02*
X488874Y89765D01*
X464016Y114623D02*
X348012Y114623D01*
X328678Y133957D01*
X247199Y133957D01*
X204388Y176768D01*
X488874Y89765D02*
X489900Y88900D01*
X204388Y176768D02*
X203200Y177800D01*
X469540Y120147D02*
X488874Y139481D01*
X469540Y120147D02*
X350774Y120147D01*
X331440Y139481D01*
X288629Y139481D01*
X225103Y203007D01*
X204388Y203007D01*
X488874Y139481D02*
X489900Y139700D01*
X204388Y203007D02*
X203200Y203200D01*
X512351Y189197D02*
X515113Y189197D01*
X512351Y189197D02*
X494398Y171244D01*
X483350Y171244D01*
X465397Y189197D01*
X515113Y189197D02*
X515300Y190500D01*
X465397Y189197D02*
X464500Y190500D01*
X488874Y241675D02*
X458492Y272057D01*
X397728Y272057D01*
X338345Y331440D01*
X338345Y335583D01*
X317630Y356298D01*
X247199Y356298D01*
X240294Y349393D01*
X240294Y309344D01*
X262390Y287248D01*
X262390Y280343D01*
X236151Y254104D01*
X204388Y254104D01*
X488874Y241675D02*
X489900Y241300D01*
X204388Y254104D02*
X203200Y254000D01*
X232008Y283105D02*
X249961Y283105D01*
X232008Y283105D02*
X215436Y266533D01*
X88384Y266533D01*
X51097Y229246D01*
X249961Y283105D02*
X251300Y284000D01*
X51097Y229246D02*
X50800Y228600D01*
X211293Y41430D02*
X249961Y41430D01*
X211293Y41430D02*
X62145Y190578D01*
X38668Y190578D01*
X30382Y198864D01*
X30382Y310725D01*
X49716Y330059D01*
X249961Y41430D02*
X251300Y40800D01*
X50800Y330200D02*
X49716Y330059D01*
X251342Y343869D02*
X251342Y306582D01*
X267914Y290010D01*
X267914Y277581D01*
X230627Y240294D01*
X87003Y240294D01*
X51097Y204388D01*
X251342Y343869D02*
X251300Y344800D01*
X51097Y204388D02*
X50800Y203200D01*
X353536Y270676D02*
X383918Y270676D01*
X412919Y241675D01*
X353536Y270676D02*
X352900Y271300D01*
X412919Y241675D02*
X413700Y241300D01*
M02*
