G04 EAGLE Gerber X2 export*
%TF.Part,Single*%
%TF.FileFunction,Soldermask,Bot,1*%
%TF.FilePolarity,Positive*%
%TF.GenerationSoftware,Autodesk,EAGLE,9.2.2*%
%TF.CreationDate,2018-12-07T06:18:27Z*%
G75*
%MOMM*%
%FSLAX34Y34*%
%LPD*%
%INSoldermask Bottom*%
%AMOC8*
5,1,8,0,0,1.08239X$1,22.5*%
G01*
%ADD10C,3.203200*%
%ADD11C,1.727200*%
%ADD12C,1.778000*%
%ADD13P,1.649562X8X22.500000*%
%ADD14P,1.649562X8X292.500000*%
%ADD15P,1.649562X8X112.500000*%
%ADD16P,1.649562X8X202.500000*%


D10*
X0Y30000D03*
X0Y770000D03*
X600000Y30000D03*
X600000Y770000D03*
D11*
X279400Y769620D02*
X279400Y754380D01*
X254000Y754380D02*
X254000Y769620D01*
X228600Y769620D02*
X228600Y754380D01*
X203200Y754380D02*
X203200Y769620D01*
X177800Y769620D02*
X177800Y754380D01*
X152400Y754380D02*
X152400Y769620D01*
X127000Y769620D02*
X127000Y754380D01*
X101600Y754380D02*
X101600Y769620D01*
X101600Y541020D02*
X101600Y525780D01*
X127000Y525780D02*
X127000Y541020D01*
X152400Y541020D02*
X152400Y525780D01*
X177800Y525780D02*
X177800Y541020D01*
X203200Y541020D02*
X203200Y525780D01*
X228600Y525780D02*
X228600Y541020D01*
X254000Y541020D02*
X254000Y525780D01*
X279400Y525780D02*
X279400Y541020D01*
D12*
X58674Y431800D02*
X42926Y431800D01*
X42926Y406400D02*
X58674Y406400D01*
X58674Y381000D02*
X42926Y381000D01*
X42926Y355600D02*
X58674Y355600D01*
X58674Y330200D02*
X42926Y330200D01*
X42926Y304800D02*
X58674Y304800D01*
X58674Y279400D02*
X42926Y279400D01*
X42926Y254000D02*
X58674Y254000D01*
X58674Y228600D02*
X42926Y228600D01*
X42926Y203200D02*
X58674Y203200D01*
X58674Y177800D02*
X42926Y177800D01*
X42926Y152400D02*
X58674Y152400D01*
X58674Y127000D02*
X42926Y127000D01*
X42926Y101600D02*
X58674Y101600D01*
X58674Y76200D02*
X42926Y76200D01*
X195326Y76200D02*
X211074Y76200D01*
X211074Y101600D02*
X195326Y101600D01*
X195326Y127000D02*
X211074Y127000D01*
X211074Y152400D02*
X195326Y152400D01*
X195326Y177800D02*
X211074Y177800D01*
X211074Y203200D02*
X195326Y203200D01*
X195326Y228600D02*
X211074Y228600D01*
X211074Y254000D02*
X195326Y254000D01*
X195326Y279400D02*
X211074Y279400D01*
X211074Y304800D02*
X195326Y304800D01*
X195326Y330200D02*
X211074Y330200D01*
X211074Y355600D02*
X195326Y355600D01*
X195326Y381000D02*
X211074Y381000D01*
X211074Y406400D02*
X195326Y406400D01*
X195326Y431800D02*
X211074Y431800D01*
D13*
X352900Y392900D03*
X340200Y411950D03*
X327500Y392900D03*
X352900Y453700D03*
X340200Y472750D03*
X327500Y453700D03*
X352900Y332100D03*
X340200Y351150D03*
X327500Y332100D03*
X251300Y466400D03*
X302100Y466400D03*
X515300Y342900D03*
X540700Y342900D03*
D14*
X566100Y368300D03*
X566100Y342900D03*
X469900Y625000D03*
X469900Y574200D03*
D15*
X431800Y574200D03*
X431800Y625000D03*
D11*
X413700Y350520D02*
X413700Y335280D01*
X439100Y335280D02*
X439100Y350520D01*
X464500Y350520D02*
X464500Y335280D01*
X489900Y335280D02*
X489900Y350520D01*
X413700Y299720D02*
X413700Y284480D01*
X439100Y284480D02*
X439100Y299720D01*
X464500Y299720D02*
X464500Y284480D01*
X489900Y284480D02*
X489900Y299720D01*
D16*
X302100Y344800D03*
X251300Y344800D03*
X302100Y405600D03*
X251300Y405600D03*
D13*
X381000Y675800D03*
X406400Y675800D03*
X515300Y292100D03*
X540700Y292100D03*
D14*
X566100Y419100D03*
X566100Y393700D03*
X566100Y317500D03*
X566100Y292100D03*
X469900Y675800D03*
X469900Y650400D03*
X431800Y675800D03*
X431800Y650400D03*
X431800Y762000D03*
X431800Y736600D03*
D11*
X436880Y533400D02*
X452120Y533400D01*
X452120Y508000D02*
X436880Y508000D01*
X436880Y482600D02*
X452120Y482600D01*
X452120Y457200D02*
X436880Y457200D01*
D13*
X352900Y28100D03*
X340200Y47150D03*
X327500Y28100D03*
D11*
X413700Y30480D02*
X413700Y45720D01*
X439100Y45720D02*
X439100Y30480D01*
X464500Y30480D02*
X464500Y45720D01*
X489900Y45720D02*
X489900Y30480D01*
D13*
X515300Y38100D03*
X540700Y38100D03*
D14*
X566100Y63500D03*
X566100Y38100D03*
D13*
X352900Y88900D03*
X340200Y107950D03*
X327500Y88900D03*
D11*
X413700Y81280D02*
X413700Y96520D01*
X439100Y96520D02*
X439100Y81280D01*
X464500Y81280D02*
X464500Y96520D01*
X489900Y96520D02*
X489900Y81280D01*
D13*
X515300Y88900D03*
X540700Y88900D03*
D14*
X566100Y114300D03*
X566100Y88900D03*
D13*
X352900Y149700D03*
X340200Y168750D03*
X327500Y149700D03*
D11*
X413700Y147320D02*
X413700Y132080D01*
X439100Y132080D02*
X439100Y147320D01*
X464500Y147320D02*
X464500Y132080D01*
X489900Y132080D02*
X489900Y147320D01*
D13*
X515300Y139700D03*
X540700Y139700D03*
D14*
X566100Y165100D03*
X566100Y139700D03*
D13*
X352900Y210500D03*
X340200Y229550D03*
X327500Y210500D03*
D11*
X413700Y198120D02*
X413700Y182880D01*
X439100Y182880D02*
X439100Y198120D01*
X464500Y198120D02*
X464500Y182880D01*
X489900Y182880D02*
X489900Y198120D01*
D13*
X515300Y190500D03*
X540700Y190500D03*
D14*
X566100Y215900D03*
X566100Y190500D03*
D13*
X352900Y271300D03*
X340200Y290350D03*
X327500Y271300D03*
D11*
X413700Y248920D02*
X413700Y233680D01*
X439100Y233680D02*
X439100Y248920D01*
X464500Y248920D02*
X464500Y233680D01*
X489900Y233680D02*
X489900Y248920D01*
D13*
X515300Y241300D03*
X540700Y241300D03*
D14*
X566100Y266700D03*
X566100Y241300D03*
D16*
X302100Y284000D03*
X251300Y284000D03*
X302100Y223200D03*
X251300Y223200D03*
X302100Y162400D03*
X251300Y162400D03*
X302100Y101600D03*
X251300Y101600D03*
X302100Y40800D03*
X251300Y40800D03*
D11*
X411900Y382380D02*
X411900Y397620D01*
X437300Y397620D02*
X437300Y382380D01*
X462700Y382380D02*
X462700Y397620D01*
X488100Y397620D02*
X488100Y382380D01*
D13*
X517300Y390000D03*
X542700Y390000D03*
X377300Y760000D03*
X402700Y760000D03*
M02*
