M48
;GenerationSoftware,Autodesk,EAGLE,9.2.2*%
;CreationDate,2018-12-07T06:18:27Z*%
FMAT,2
ICI,OFF
METRIC,TZ,000.000
T5C0.813
T4C0.900
T3C1.000
T2C1.016
T1C3.000
%
G90
M71
T1
X0Y3000
X0Y77000
X60000Y3000
X60000Y77000
T2
X41370Y8890
X48990Y3810
X46450Y3810
X43910Y3810
X41370Y3810
X44450Y45720
X43910Y19050
X44450Y48260
X44450Y50800
X44450Y53340
X41370Y29210
X48990Y34290
X46450Y34290
X43910Y34290
X48990Y29210
X46450Y29210
X43910Y29210
X41370Y34290
X43910Y8890
X46450Y8890
X48990Y8890
X41370Y13970
X43910Y13970
X46450Y13970
X48990Y13970
X41370Y19050
X46450Y19050
X48990Y19050
X41370Y24130
X43910Y24130
X46450Y24130
X48990Y24130
X41190Y39000
X43730Y39000
X46270Y39000
X48810Y39000
T3
X20320Y20320
X20320Y22860
X20320Y25400
X5080Y43180
X20320Y30480
X20320Y33020
X20320Y35560
X20320Y38100
X20320Y40640
X20320Y43180
X20320Y27940
X5080Y40640
X5080Y38100
X5080Y35560
X5080Y33020
X5080Y30480
X5080Y27940
X5080Y25400
X5080Y22860
X5080Y10160
X5080Y20320
X5080Y17780
X5080Y15240
X5080Y12700
X5080Y7620
X20320Y7620
X20320Y10160
X20320Y12700
X20320Y15240
X20320Y17780
T4
X22860Y53340
X20320Y53340
X17780Y53340
X15240Y53340
X12700Y53340
X10160Y53340
X10160Y76200
X15240Y76200
X17780Y76200
X20320Y76200
X22860Y76200
X25400Y76200
X27940Y76200
X27940Y53340
X25400Y53340
X12700Y76200
T5
X56610Y39370
X56610Y31750
X56610Y29210
X46990Y67580
X46990Y65040
X43180Y67580
X43180Y65040
X43180Y76200
X43180Y73660
X35290Y39290
X34020Y41195
X32750Y39290
X35290Y45370
X35290Y2810
X34020Y4715
X32750Y2810
X34020Y47275
X32750Y45370
X35290Y33210
X34020Y35115
X51530Y3810
X54070Y3810
X56610Y6350
X56610Y3810
X35290Y8890
X34020Y10795
X32750Y8890
X32750Y33210
X25130Y46640
X30210Y46640
X51530Y34290
X51530Y8890
X54070Y8890
X56610Y11430
X56610Y8890
X35290Y14970
X34020Y16875
X32750Y14970
X54070Y34290
X56610Y36830
X56610Y34290
X46990Y62500
X51530Y13970
X54070Y13970
X56610Y16510
X56610Y13970
X35290Y21050
X34020Y22955
X32750Y21050
X46990Y57420
X43180Y57420
X43180Y62500
X30210Y34480
X51530Y19050
X54070Y19050
X56610Y21590
X56610Y19050
X35290Y27130
X34020Y29035
X32750Y27130
X25130Y34480
X30210Y40560
X25130Y40560
X38100Y67580
X51530Y24130
X54070Y24130
X56610Y26670
X56610Y24130
X30210Y28400
X25130Y28400
X30210Y22320
X25130Y22320
X30210Y16240
X25130Y16240
X30210Y10160
X25130Y10160
X30210Y4080
X25130Y4080
X40640Y67580
X51530Y29210
X54070Y29210
X56610Y41910
X51730Y39000
X54270Y39000
X37730Y76000
X40270Y76000
M30